<svg viewBox="0 0 512 512" xmlns="http://www.w3.org/2000/svg"><g fill-rule="evenodd"><path d="m471.95 253.05c0 120.9-98.01 218.9-218.9 218.9-120.9 0-218.9-98.01-218.9-218.9 0-120.9 98.01-218.9 218.9-218.9 120.9 0 218.9 98.01 218.9 218.9" fill="#1488bb"/><path d="m255.97 78.69c-13.518 33.14-21.669 54.813-36.719 86.969 2.431 2.576 5.03 5.296 7.844 8.094.202.203.389.39.594.594.797.805 1.632 1.614 2.469 2.438.036.037.058.088.094.125.311.312.621.622.938.938.347.349.709.679 1.063 1.031.036.037.058.088.094.125.311.312.621.622.938.938.347.349.709.679 1.063 1.031.228.23.425.456.656.688.797.805 1.632 1.614 2.469 2.438.036.037.058.088.094.125.311.312.621.622.938.938.347.349.709.679 1.063 1.031.036.037.058.088.094.125.311.312.621.622.938.938.347.349.709.679 1.063 1.031 1.01 1.026 2.052 2.069 3.125 3.125.036.037.058.088.094.125.311.312.621.622.938.938.367.369.75.721 1.125 1.094.041.042.084.083.125.125.32.321.643.645.969.969l.125.125.031.031c.213.214.409.441.625.656l.094.094c.046.047.11.078.156.125-14.908-6.828-25.779-13.683-34.22-20.781-19.261 40.19-49.42 97.47-110.66 207.5.794-.459 1.555-.891 2.344-1.344-.464.834-.845 1.535-1.313 2.375.813-.469 1.6-.912 2.406-1.375-.471.847-.869 1.553-1.344 2.406.803-.464 1.578-.886 2.375-1.344-.471.847-.869 1.553-1.344 2.406.792-.457 1.557-.892 2.344-1.344-.464.834-.845 1.535-1.313 2.375.814-.47 1.599-.911 2.406-1.375-.476.855-.864 1.576-1.344 2.438.792-.457 1.557-.892 2.344-1.344-.464.834-.845 1.535-1.313 2.375.813-.469 1.6-.912 2.406-1.375-.476.855-.864 1.576-1.344 2.438.794-.459 1.555-.891 2.344-1.344-.464.834-.845 1.535-1.313 2.375.813-.469 1.6-.912 2.406-1.375-.471.847-.869 1.553-1.344 2.406.803-.464 1.578-.886 2.375-1.344-.471.846-.869 1.554-1.344 2.406.792-.457 1.557-.892 2.344-1.344-.464.834-.845 1.535-1.313 2.375.814-.47 1.599-.911 2.406-1.375-.476.855-.864 1.576-1.344 2.438.792-.457 1.557-.892 2.344-1.344-.464.834-.845 1.535-1.313 2.375.813-.469 1.6-.912 2.406-1.375-.476.855-.864 1.576-1.344 2.438.792-.457 1.557-.892 2.344-1.344-.464.834-.845 1.535-1.313 2.375.813-.469 1.6-.912 2.406-1.375-.471.847-.869 1.553-1.344 2.406.803-.464 1.578-.886 2.375-1.344-.471.846-.869 1.554-1.344 2.406.792-.457 1.557-.892 2.344-1.344-.464.834-.845 1.535-1.313 2.375.814-.47 1.599-.911 2.406-1.375-.476.855-.864 1.576-1.344 2.438.792-.457 1.557-.892 2.344-1.344-.464.834-.845 1.535-1.313 2.375.813-.469 1.6-.912 2.406-1.375-.476.855-.864 1.576-1.344 2.438.792-.457 1.557-.892 2.344-1.344-.464.834-.845 1.535-1.313 2.375.813-.469 1.6-.912 2.406-1.375-.471.847-.869 1.553-1.344 2.406.803-.464 1.578-.886 2.375-1.344-.471.846-.869 1.554-1.344 2.406.792-.457 1.557-.892 2.344-1.344-.464.834-.845 1.535-1.313 2.375.814-.47 1.599-.911 2.406-1.375-.476.855-.864 1.576-1.344 2.438.792-.457 1.557-.892 2.344-1.344-.464.834-.845 1.535-1.313 2.375.814-.47 1.599-.911 2.406-1.375-.476.855-.864 1.576-1.344 2.438.792-.457 1.557-.892 2.344-1.344-.464.834-.845 1.535-1.313 2.375.813-.469 1.6-.912 2.406-1.375-.476.855-.864 1.576-1.344 2.438.794-.459 1.555-.891 2.344-1.344-.464.834-.845 1.535-1.313 2.375.813-.469 1.6-.912 2.406-1.375-.471.847-.869 1.553-1.344 2.406.803-.464 1.578-.886 2.375-1.344-.471.847-.869 1.553-1.344 2.406.792-.457 1.557-.892 2.344-1.344-.464.834-.845 1.535-1.313 2.375.814-.47 1.599-.911 2.406-1.375-.476.855-.864 1.576-1.344 2.438.792-.457 1.557-.892 2.344-1.344-.464.834-.845 1.535-1.313 2.375.813-.469 1.6-.912 2.406-1.375-.476.855-.864 1.576-1.344 2.438.794-.459 1.555-.891 2.344-1.344-.464.834-.845 1.535-1.313 2.375.813-.469 1.6-.912 2.406-1.375-.471.847-.869 1.553-1.344 2.406.803-.464 1.578-.886 2.375-1.344-.471.847-.869 1.553-1.344 2.406.792-.457 1.557-.892 2.344-1.344-.464.834-.845 1.535-1.313 2.375.814-.47 1.599-.911 2.406-1.375-.476.855-.864 1.576-1.344 2.438.792-.457 1.557-.892 2.344-1.344-.464.834-.845 1.535-1.313 2.375.813-.469 1.6-.912 2.406-1.375-.476.855-.864 1.576-1.344 2.438.792-.457 1.557-.892 2.344-1.344-.464.834-.845 1.535-1.313 2.375.813-.469 1.6-.912 2.406-1.375-.471.847-.869 1.553-1.344 2.406.803-.464 1.578-.886 2.375-1.344-.471.846-.869 1.554-1.344 2.406.792-.457 1.557-.892 2.344-1.344-.464.834-.845 1.535-1.313 2.375.814-.47 1.599-.911 2.406-1.375-.476.855-.864 1.576-1.344 2.438.792-.457 1.557-.892 2.344-1.344-.464.834-.845 1.535-1.313 2.375.813-.469 1.6-.912 2.406-1.375-.476.855-.864 1.576-1.344 2.438.792-.457 1.557-.892 2.344-1.344-.464.834-.845 1.535-1.313 2.375.813-.469 1.6-.912 2.406-1.375-.471.847-.869 1.553-1.344 2.406.803-.464 1.578-.886 2.375-1.344-.471.846-.869 1.554-1.344 2.406.792-.457 1.557-.892 2.344-1.344-.464.834-.845 1.535-1.313 2.375.814-.47 1.599-.911 2.406-1.375-.476.855-.864 1.576-1.344 2.438.792-.457 1.557-.892 2.344-1.344-.464.834-.845 1.535-1.313 2.375.813-.469 1.6-.912 2.406-1.375-.476.855-.864 1.576-1.344 2.438.792-.457 1.557-.892 2.344-1.344-.464.834-.845 1.535-1.313 2.375.813-.469 1.6-.912 2.406-1.375-.476.855-.864 1.576-1.344 2.438.794-.459 1.555-.891 2.344-1.344-.464.834-.845 1.535-1.313 2.375.792-.457 1.557-.892 2.344-1.344-.464.834-.845 1.535-1.313 2.375h.031c.803-.464 1.578-.886 2.375-1.344-.471.847-.869 1.553-1.344 2.406.792-.457 1.557-.892 2.344-1.344-.464.834-.845 1.535-1.313 2.375.814-.47 1.599-.911 2.406-1.375-.476.855-.864 1.576-1.344 2.438.792-.457 1.557-.892 2.344-1.344-.464.834-.845 1.535-1.313 2.375.813-.469 1.6-.912 2.406-1.375-.476.855-.864 1.576-1.344 2.438.794-.459 1.555-.891 2.344-1.344-.464.834-.845 1.535-1.313 2.375.813-.469 1.6-.912 2.406-1.375-.471.847-.869 1.553-1.344 2.406.803-.464 1.578-.886 2.375-1.344-.471.847-.869 1.553-1.344 2.406.792-.457 1.557-.892 2.344-1.344-.464.834-.845 1.535-1.313 2.375.814-.47 1.599-.911 2.406-1.375-.476.855-.864 1.576-1.344 2.438.792-.457 1.557-.892 2.344-1.344-.464.834-.845 1.535-1.313 2.375.813-.469 1.6-.912 2.406-1.375-.476.855-.864 1.576-1.344 2.438.794-.459 1.555-.891 2.344-1.344-.397.714-.743 1.342-1.125 2.031.094.032.188.062.281.094.65-.372 1.286-.751 1.938-1.125-.287.516-.546.992-.813 1.469.232.077.456.174.688.25.384-.215.768-.433 1.156-.656-.172.309-.34.589-.5.875.386.125.769.252 1.156.375.113-.065.23-.122.344-.188-.05.09-.108.162-.156.25 20.893 6.624 43.13 10.219 66.22 10.219 106.97 0 196.03-76.74 215.13-178.16-.754-1.775-1.402-3.282-2.188-5.125-.105.257-.177.463-.281.719-.265-.622-.481-1.119-.75-1.75-.11.271-.203.481-.313.75-.272-.64-.474-1.164-.75-1.813-.105.257-.177.463-.281.719-.264-.622-.482-1.12-.75-1.75-.11.271-.203.481-.313.75-.272-.64-.474-1.164-.75-1.813-.105.257-.177.463-.281.719-.264-.622-.482-1.12-.75-1.75-.11.271-.203.481-.313.75-.269-.632-.477-1.141-.75-1.781-.101.248-.181.441-.281.688-.264-.622-.482-1.12-.75-1.75-.105.257-.177.463-.281.719-.265-.622-.481-1.119-.75-1.75-.11.271-.203.481-.313.75-.272-.64-.474-1.164-.75-1.813-.105.257-.177.463-.281.719-.265-.622-.481-1.119-.75-1.75-.11.271-.203.481-.313.75-.272-.64-.474-1.164-.75-1.813-.105.257-.177.463-.281.719-.264-.622-.482-1.12-.75-1.75-.11.271-.203.481-.313.75-.272-.64-.474-1.164-.75-1.813-.105.257-.177.463-.281.719-.264-.622-.482-1.12-.75-1.75-.105.257-.177.463-.281.719-.265-.622-.481-1.119-.75-1.75-.11.271-.203.481-.313.75-.272-.64-.474-1.164-.75-1.813-.105.257-.177.463-.281.719-.265-.622-.481-1.119-.75-1.75-.11.271-.203.481-.313.75-.272-.64-.474-1.164-.75-1.813-.105.257-.177.463-.281.719-.264-.622-.482-1.12-.75-1.75-.11.271-.203.481-.313.75-.272-.64-.474-1.164-.75-1.813-.105.257-.177.463-.281.719-.264-.622-.482-1.12-.75-1.75-.105.257-.177.463-.281.719-.265-.622-.481-1.119-.75-1.75-.11.271-.203.481-.313.75-.272-.64-.474-1.164-.75-1.813-.105.257-.177.463-.281.719-.265-.622-.481-1.119-.75-1.75-.11.271-.203.481-.313.75-.272-.64-.474-1.164-.75-1.813-.105.257-.177.463-.281.719-.264-.622-.482-1.12-.75-1.75-.11.271-.203.481-.313.75-.272-.64-.474-1.164-.75-1.813-.105.257-.177.463-.281.719-.264-.622-.482-1.12-.75-1.75-.109.267-.173.485-.281.75-.265-.622-.481-1.12-.75-1.75-.105.257-.177.463-.281.719-.274-.644-.503-1.16-.781-1.813-.105.257-.177.463-.281.719-.265-.622-.481-1.119-.75-1.75-.11.271-.203.481-.313.75-.272-.64-.474-1.164-.75-1.813-.105.257-.177.463-.281.719-.264-.622-.482-1.12-.75-1.75-.11.271-.203.481-.313.75-.272-.64-.474-1.164-.75-1.813-.105.257-.177.463-.281.719-.264-.622-.482-1.12-.75-1.75-.11.271-.203.481-.313.75-.269-.632-.477-1.141-.75-1.781-.101.248-.181.441-.281.688-.264-.622-.482-1.12-.75-1.75-.105.257-.177.463-.281.719-.265-.622-.481-1.119-.75-1.75-.11.271-.203.481-.313.75-.272-.64-.474-1.164-.75-1.813-.105.257-.177.463-.281.719-.265-.622-.481-1.119-.75-1.75-.11.271-.203.481-.313.75-.272-.64-.474-1.164-.75-1.813-.105.257-.177.463-.281.719-.264-.622-.482-1.12-.75-1.75-.11.271-.203.481-.313.75-.272-.64-.474-1.164-.75-1.813-.105.257-.177.463-.281.719-.264-.622-.482-1.12-.75-1.75-.105.257-.177.463-.281.719-.265-.622-.481-1.119-.75-1.75-.11.271-.203.481-.313.75-.272-.64-.474-1.164-.75-1.813-.105.257-.177.463-.281.719-.265-.622-.481-1.119-.75-1.75-.11.271-.203.481-.313.75-.272-.64-.474-1.164-.75-1.813-.105.257-.177.463-.281.719-.264-.622-.482-1.12-.75-1.75-.11.271-.203.481-.313.75-.272-.64-.474-1.164-.75-1.813-.105.257-.177.463-.281.719-.264-.622-.482-1.12-.75-1.75-.105.257-.177.463-.281.719-.265-.622-.481-1.119-.75-1.75-.11.271-.203.481-.313.75-.272-.64-.474-1.164-.75-1.813-.105.257-.177.463-.281.719-.265-.622-.481-1.119-.75-1.75-.11.271-.203.481-.313.75-.272-.64-.474-1.164-.75-1.813-.105.257-.177.463-.281.719-.264-.622-.482-1.12-.75-1.75-.11.271-.203.481-.313.75-.272-.64-.474-1.164-.75-1.813-.105.257-.177.463-.281.719-.264-.622-.482-1.12-.75-1.75-.105.257-.177.463-.281.719-.265-.622-.481-1.119-.75-1.75-.11.271-.203.481-.313.75-.272-.64-.474-1.164-.75-1.813-.105.257-.177.463-.281.719-.265-.622-.481-1.119-.75-1.75-.11.271-.203.481-.313.75-.272-.64-.474-1.164-.75-1.813-.105.257-.177.463-.281.719-.264-.622-.482-1.12-.75-1.75-.11.271-.203.481-.313.75-.272-.64-.474-1.164-.75-1.813-.105.257-.177.463-.281.719-.264-.622-.482-1.12-.75-1.75-.11.271-.203.481-.313.75-.269-.632-.477-1.141-.75-1.781-.101.248-.181.441-.281.688-.264-.622-.482-1.12-.75-1.75-.105.257-.177.463-.281.719-.265-.622-.481-1.119-.75-1.75-.11.271-.203.481-.313.75-.272-.64-.474-1.164-.75-1.813-.105.257-.177.463-.281.719-.264-.622-.482-1.12-.75-1.75-.11.271-.203.481-.313.75-.272-.64-.474-1.164-.75-1.813-.105.257-.177.463-.281.719-.264-.622-.482-1.12-.75-1.75-.11.271-.203.481-.313.75-.269-.632-.477-1.141-.75-1.781-.101.248-.181.441-.281.688-.264-.622-.482-1.12-.75-1.75-.105.257-.177.463-.281.719-.265-.622-.481-1.119-.75-1.75-.11.271-.203.481-.313.75-.272-.64-.474-1.164-.75-1.813-.105.257-.177.463-.281.719-.265-.622-.481-1.119-.75-1.75-.11.271-.203.481-.313.75-.272-.64-.474-1.164-.75-1.813-.105.257-.177.463-.281.719-.264-.622-.482-1.12-.75-1.75-.11.271-.203.481-.313.75-.272-.64-.474-1.164-.75-1.813-.105.257-.177.463-.281.719-.264-.622-.482-1.12-.75-1.75-.105.257-.177.463-.281.719-.265-.622-.481-1.119-.75-1.75-.11.271-.203.481-.313.75-.272-.64-.474-1.164-.75-1.813-.105.257-.177.463-.281.719-.265-.622-.481-1.119-.75-1.75-.11.271-.203.481-.313.75-.272-.64-.474-1.164-.75-1.813-.105.257-.177.463-.281.719-.264-.622-.482-1.12-.75-1.75-.11.271-.203.481-.313.75-.272-.64-.474-1.164-.75-1.813-.105.257-.177.463-.281.719-.264-.622-.482-1.12-.75-1.75-.105.257-.177.463-.281.719-.265-.622-.481-1.119-.75-1.75-.11.271-.203.481-.313.75-.272-.64-.474-1.164-.75-1.813-.105.257-.177.463-.281.719-.265-.622-.481-1.119-.75-1.75-.11.271-.203.481-.313.75-.272-.64-.474-1.164-.75-1.813-.105.257-.177.463-.281.719-.264-.622-.482-1.12-.75-1.75-.11.271-.203.481-.313.75-.272-.64-.474-1.164-.75-1.813-.105.257-.177.463-.281.719-.264-.622-.482-1.12-.75-1.75-.109.267-.173.485-.281.75-.265-.622-.481-1.12-.75-1.75-.105.257-.177.463-.281.719-.274-.644-.503-1.16-.781-1.813-.105.257-.177.463-.281.719-.265-.622-.481-1.119-.75-1.75-.11.271-.203.481-.313.75-.272-.64-.474-1.164-.75-1.813-.105.257-.177.463-.281.719-.264-.622-.482-1.12-.75-1.75-.11.271-.203.481-.313.75-.272-.64-.474-1.164-.75-1.813-.105.257-.177.463-.281.719-.264-.622-.482-1.12-.75-1.75-.11.271-.203.481-.313.75-.269-.632-.477-1.141-.75-1.781-.101.248-.181.441-.281.688-.264-.622-.482-1.12-.75-1.75-.105.257-.177.463-.281.719-.265-.622-.481-1.119-.75-1.75-.11.271-.203.481-.313.75-.272-.64-.474-1.164-.75-1.813-.105.257-.177.463-.281.719-.265-.622-.481-1.119-.75-1.75-.11.271-.203.481-.313.75-.272-.64-.474-1.164-.75-1.813-.105.257-.177.463-.281.719-.264-.622-.482-1.12-.75-1.75-.11.271-.203.481-.313.75-.272-.64-.474-1.164-.75-1.813-.105.257-.177.463-.281.719-.264-.622-.482-1.12-.75-1.75-.105.257-.177.463-.281.719-.265-.622-.481-1.119-.75-1.75-.11.271-.203.481-.313.75-.272-.64-.474-1.164-.75-1.813-.105.257-.177.463-.281.719-.265-.622-.481-1.119-.75-1.75-.11.271-.203.481-.313.75-.272-.64-.474-1.164-.75-1.813-.105.257-.177.463-.281.719-.264-.622-.482-1.12-.75-1.75-.11.271-.203.481-.313.75-.272-.64-.474-1.164-.75-1.813-.105.257-.177.463-.281.719-.264-.622-.482-1.12-.75-1.75-.105.257-.177.463-.281.719-.265-.622-.481-1.119-.75-1.75-.11.271-.203.481-.313.75-.272-.64-.474-1.164-.75-1.813-.105.257-.177.463-.281.719-.265-.622-.481-1.119-.75-1.75-.11.271-.203.481-.313.75-.272-.64-.474-1.164-.75-1.813-.105.257-.177.463-.281.719-.264-.622-.482-1.12-.75-1.75-.11.271-.203.481-.313.75-.272-.64-.474-1.164-.75-1.813-.105.257-.177.463-.281.719-.264-.622-.482-1.12-.75-1.75-.105.257-.177.463-.281.719-.265-.622-.481-1.119-.75-1.75-.11.271-.203.481-.313.75-.272-.64-.474-1.164-.75-1.813-.105.257-.177.463-.281.719-.265-.622-.481-1.119-.75-1.75-.11.271-.203.481-.313.75-.272-.64-.474-1.164-.75-1.813-.105.257-.177.463-.281.719-.264-.622-.482-1.12-.75-1.75-.11.271-.203.481-.313.75-.272-.64-.474-1.164-.75-1.813-.105.257-.177.463-.281.719-.264-.622-.482-1.12-.75-1.75-.11.271-.203.481-.313.75-.269-.632-.477-1.141-.75-1.781-.101.248-.181.441-.281.688-.264-.622-.482-1.12-.75-1.75-.105.257-.177.463-.281.719-.265-.622-.481-1.119-.75-1.75-.11.271-.203.481-.313.75-.272-.64-.474-1.164-.75-1.813-.105.257-.177.463-.281.719-.264-.622-.482-1.12-.75-1.75-.11.271-.203.481-.313.75-.272-.64-.474-1.164-.75-1.813-.105.257-.177.463-.281.719-.264-.622-.482-1.12-.75-1.75-.11.271-.203.481-.313.75-.269-.632-.477-1.141-.75-1.781-.101.248-.181.441-.281.688-.264-.622-.482-1.12-.75-1.75-.105.257-.177.463-.281.719-.265-.622-.481-1.119-.75-1.75-.11.271-.203.481-.313.75-.272-.64-.474-1.164-.75-1.813-.105.257-.177.463-.281.719-.265-.622-.481-1.119-.75-1.75-.11.271-.203.481-.313.75-.272-.64-.474-1.164-.75-1.813-.105.257-.177.463-.281.719-.264-.622-.482-1.12-.75-1.75-.11.271-.203.481-.313.75-.272-.64-.474-1.164-.75-1.813-.105.257-.177.463-.281.719-.264-.622-.482-1.12-.75-1.75-.105.257-.177.463-.281.719-.265-.622-.481-1.119-.75-1.75-.11.271-.203.481-.313.75-.272-.64-.474-1.164-.75-1.813-.105.257-.177.463-.281.719-.265-.622-.481-1.119-.75-1.75-.11.271-.203.481-.313.75-.272-.64-.474-1.164-.75-1.813-.105.257-.177.463-.281.719-.264-.622-.482-1.12-.75-1.75-.11.271-.203.481-.313.75-.272-.64-.474-1.164-.75-1.813-.105.257-.177.463-.281.719-.264-.622-.482-1.12-.75-1.75-.105.257-.177.463-.281.719-.265-.622-.481-1.119-.75-1.75-.11.271-.203.481-.313.75-.272-.64-.474-1.164-.75-1.813-.105.257-.177.463-.281.719-.265-.622-.481-1.119-.75-1.75-.11.271-.203.481-.313.75-.272-.64-.474-1.164-.75-1.813-.105.257-.177.463-.281.719-.264-.622-.482-1.12-.75-1.75-.11.271-.203.481-.313.75-.272-.64-.474-1.164-.75-1.813-.105.257-.177.463-.281.719-.264-.622-.482-1.12-.75-1.75-.109.267-.173.485-.281.75-.265-.622-.481-1.12-.75-1.75-.105.257-.177.463-.281.719-.274-.644-.503-1.16-.781-1.813-.105.257-.177.463-.281.719-.265-.622-.481-1.119-.75-1.75-.11.271-.203.481-.313.75-.272-.64-.474-1.164-.75-1.813-.105.257-.177.463-.281.719-.264-.622-.482-1.12-.75-1.75-.11.271-.203.481-.313.75-.272-.64-.474-1.164-.75-1.813-.105.257-.177.463-.281.719-.264-.622-.482-1.12-.75-1.75-.11.271-.203.481-.313.75-.269-.632-.477-1.141-.75-1.781-.101.248-.181.441-.281.688-.264-.622-.482-1.12-.75-1.75-.105.257-.177.463-.281.719-.265-.622-.481-1.119-.75-1.75-.11.271-.203.481-.313.75-.272-.64-.474-1.164-.75-1.813-.105.257-.177.463-.281.719-.265-.622-.481-1.119-.75-1.75-.11.271-.203.481-.313.75-.272-.64-.474-1.164-.75-1.813-.105.257-.177.463-.281.719-.264-.622-.482-1.12-.75-1.75-.11.271-.203.481-.313.75-.272-.64-.474-1.164-.75-1.813-.105.257-.177.463-.281.719-.264-.622-.482-1.12-.75-1.75-.105.257-.177.463-.281.719-.265-.622-.481-1.119-.75-1.75-.11.271-.203.481-.313.75-.272-.64-.474-1.164-.75-1.813-.105.257-.177.463-.281.719-.265-.622-.481-1.119-.75-1.75-.11.271-.203.481-.313.75-.272-.64-.474-1.164-.75-1.813-.105.257-.177.463-.281.719-.264-.622-.482-1.12-.75-1.75-.11.271-.203.481-.313.75-.272-.64-.474-1.164-.75-1.813-.105.257-.177.463-.281.719-.264-.622-.482-1.12-.75-1.75-.105.257-.177.463-.281.719-.265-.622-.481-1.119-.75-1.75-.11.271-.203.481-.313.75-.272-.64-.474-1.164-.75-1.813-.105.257-.177.463-.281.719-.265-.622-.481-1.119-.75-1.75-.11.271-.203.481-.313.75-.272-.64-.474-1.164-.75-1.813-.105.257-.177.463-.281.719-.264-.622-.482-1.12-.75-1.75-.11.271-.203.481-.313.75-.272-.64-.474-1.164-.75-1.813-.105.257-.177.463-.281.719-.264-.622-.482-1.12-.75-1.75-.105.257-.177.463-.281.719-.265-.622-.481-1.119-.75-1.75-.11.271-.203.481-.313.75-.272-.64-.474-1.164-.75-1.813-.105.257-.177.463-.281.719-.265-.622-.481-1.119-.75-1.75-.11.271-.203.481-.313.75-.272-.64-.474-1.164-.75-1.813-.105.257-.177.463-.281.719-.264-.622-.482-1.12-.75-1.75-.11.271-.203.481-.313.75-.272-.64-.474-1.164-.75-1.813-.105.257-.177.463-.281.719-.264-.622-.482-1.12-.75-1.75-.11.271-.203.481-.313.75-.269-.632-.477-1.141-.75-1.781-.101.248-.181.441-.281.688-.264-.622-.482-1.12-.75-1.75" fill-opacity=".235"/><path d="m256 1c-140.83 0-255 114.17-255 255s114.17 255 255 255 255-114.17 255-255-114.17-255-255-255m8.827 44.931c120.9 0 218.9 98 218.9 218.9s-98 218.9-218.9 218.9-218.93-98-218.93-218.9 98.03-218.9 218.93-218.9" fill-opacity=".067"/><g fill-opacity=".129"><path d="m256 4.433c-138.94 0-251.57 112.63-251.57 251.57s112.63 251.57 251.57 251.57 251.57-112.63 251.57-251.57-112.63-251.57-251.57-251.57m5.885 38.556c120.9 0 218.9 98 218.9 218.9s-98 218.9-218.9 218.9-218.93-98-218.93-218.9 98.03-218.9 218.93-218.9"/><path d="m256 8.356c-136.77 0-247.64 110.87-247.64 247.64s110.87 247.64 247.64 247.64 247.64-110.87 247.64-247.64-110.87-247.64-247.64-247.64m2.942 31.691c120.9 0 218.9 98 218.9 218.9s-98 218.9-218.9 218.9-218.93-98-218.93-218.9 98.03-218.9 218.93-218.9"/></g><path d="m253.04 7.859c-135.42 0-245.19 109.78-245.19 245.19 0 135.42 109.78 245.19 245.19 245.19 135.42 0 245.19-109.78 245.19-245.19 0-135.42-109.78-245.19-245.19-245.19zm0 26.297c120.9 0 218.9 98 218.9 218.9s-98 218.9-218.9 218.9-218.93-98-218.93-218.9 98.03-218.9 218.93-218.9z" fill="#fff" stroke="#000" stroke-opacity=".31" stroke-width="4.904"/></g><text x="729.64001" y="231.36"><tspan x="729.64001" y="231.36"/></text><text transform="scale(4.0128 .2492)" x="378.91" y="579.25"/><text x="1310.91" y="151.36"><tspan x="1310.91" y="151.36"/></text><text transform="scale(4.0128 .2492)" x="523.76001" y="258.22"/><text x="239.33" y="-29.900999"><tspan x="239.33" y="-29.900999"/></text><text transform="scale(4.0128 .2492)" x="256.72" y="-469.14001"/><text x="1337.38" y="-246.37"><tspan x="1337.38" y="-246.37"/></text><text transform="scale(4.0128 .2492)" x="530.35999" y="-1337.8101"/><text x="1918.65" y="-326.38"><tspan x="1918.65" y="-326.38"/></text><text transform="scale(4.0128 .2492)" x="675.21002" y="-1658.85"/><text x="1529.53" y="-798.78003"><tspan x="1529.53" y="-798.78003"/></text><text transform="scale(4.0128 .2492)" x="578.23999" y="-3554.51"/><text x="2110.79" y="-878.78003"><tspan x="2110.79" y="-878.78003"/></text><text transform="scale(4.0128 .2492)" x="723.09003" y="-3875.54"/><text x="277.98999" y="535.94"><tspan x="277.98999" y="535.94"/></text><path d="m255.97 78.69c-13.518 33.14-21.671 54.82-36.721 86.976 9.227 9.781 20.554 21.17 38.948 34.04-19.775-8.137-33.26-16.307-43.35-24.785-19.261 40.19-49.44 97.44-110.68 207.47 48.13-27.787 85.44-44.918 120.21-51.45-1.493-6.422-2.342-13.368-2.284-20.616l.059-1.542c.764-30.836 16.805-54.55 35.807-52.939 19 1.61 33.772 27.928 33.01 58.764-.144 5.802-.798 11.384-1.942 16.561 34.394 6.728 71.31 23.815 118.78 51.23-9.362-17.236-17.719-32.773-25.699-47.571-12.57-9.742-25.681-22.423-52.43-36.15 18.382 4.776 31.544 10.287 41.803 16.447-81.14-151.06-87.71-171.13-115.53-236.43" fill="#fff" fill-rule="evenodd"/></svg>