<svg height="96" width="96" xmlns="http://www.w3.org/2000/svg" xmlns:xlink="http://www.w3.org/1999/xlink"><linearGradient id="a"><stop offset="0" stop-color="#fff"/><stop offset="1" stop-color="#fff" stop-opacity="0"/></linearGradient><linearGradient id="b" gradientUnits="userSpaceOnUse" x1="36.357143" x2="36.357143" xlink:href="#a" y1="6" y2="63.893143"/><filter id="c" color-interpolation-filters="sRGB" height="1.384" width="1.384" x="-.192" y="-.192"><feGaussianBlur stdDeviation="5.28"/></filter><linearGradient id="d" gradientUnits="userSpaceOnUse" x1="48" x2="48" xlink:href="#a" y1="20.220806" y2="138.66119"/><radialGradient id="e" cx="48" cy="90.171875" gradientTransform="matrix(1.1573129 0 0 .99590774 -7.551021 .197132)" gradientUnits="userSpaceOnUse" r="42" xlink:href="#a"/><clipPath id="f"><rect height="84" rx="6" width="84" x="6" y="6"/></clipPath><linearGradient id="g" gradientUnits="userSpaceOnUse" x1="48" x2="48" y1="90" y2="5.987717"><stop offset="0" stop-color="#6a9f37"/><stop offset="1" stop-color="#92d74e"/></linearGradient><linearGradient id="h" gradientTransform="matrix(1.0058652 0 0 .994169 100 0)" gradientUnits="userSpaceOnUse" x1="45.447727" x2="45.447727" y1="92.539597" y2="7.01654"><stop offset="0"/><stop offset="1" stop-opacity=".588235"/></linearGradient><linearGradient id="i" gradientTransform="matrix(1.0238095 0 0 1.0119048 -1.142857 -98.071429)" gradientUnits="userSpaceOnUse" x1="32.251034" x2="32.251034" xlink:href="#h" y1="6.131708" y2="90.238609"/><linearGradient id="j" gradientTransform="translate(0 -97)" gradientUnits="userSpaceOnUse" x1="32.251034" x2="32.251034" xlink:href="#h" y1="6.131708" y2="90.238609"/><linearGradient id="k" gradientUnits="userSpaceOnUse" x1="48" x2="48" y1="67.218414" y2="28.781588"><stop offset="0" stop-color="#e1e1e1"/><stop offset="1" stop-color="#fff"/></linearGradient><g fill="url(#i)"><path d="m12-95.03125c-5.5110903 0-10.03125 4.52016-10.03125 10.03125v71c0 5.5110902 4.5201598 10.03125 10.03125 10.03125h72c5.51109 0 10.03125-4.5201597 10.03125-10.03125v-71c0-5.51109-4.52016-10.03125-10.03125-10.03125z" opacity=".08" transform="scale(1 -1)"/><path d="m12-94.03125c-4.971633 0-9.03125 4.059617-9.03125 9.03125v71c0 4.9716329 4.0596171 9.03125 9.03125 9.03125h72c4.971633 0 9.03125-4.059617 9.03125-9.03125v-71c0-4.971633-4.059617-9.03125-9.03125-9.03125z" opacity=".1" transform="scale(1 -1)"/><path d="m12-93c-4.4091333 0-8 3.590867-8 8v71c0 4.4091333 3.5908667 8 8 8h72c4.409133 0 8-3.5908667 8-8v-71c0-4.409133-3.590867-8-8-8z" opacity=".2" transform="scale(1 -1)"/><rect height="85" opacity=".3" rx="7" transform="scale(1 -1)" width="86" x="5" y="-92"/></g><rect fill="url(#j)" height="84" opacity=".45" rx="6" transform="scale(1 -1)" width="84" x="6" y="-91"/><rect fill="url(#g)" height="84" rx="6" width="84" x="6" y="6"/><path d="m12 6c-3.324 0-6 2.676-6 6v2 68 2c0 .334721.04135.6507.09375.96875.0487.295596.09704.596915.1875.875.00988.03038.020892.0636.03125.09375.098865.287771.2348802.547452.375.8125.1445918.273507.3156161.535615.5.78125s.3737765.473472.59375.6875c.439947.428056.94291.814526 1.5 1.09375.278545.139612.5734731.246947.875.34375-.2562018-.100222-.4867109-.236272-.71875-.375-.00741-.0044-.023866.0045-.03125 0-.031933-.0193-.062293-.04251-.09375-.0625-.120395-.0767-.2310226-.163513-.34375-.25-.1061728-.0808-.2132809-.161112-.3125-.25-.1779299-.161433-.3474596-.345388-.5-.53125-.1075789-.130255-.2183939-.265285-.3125-.40625-.025089-.03838-.038446-.08587-.0625-.125-.064763-.103032-.1302275-.204517-.1875-.3125-.1010083-.194706-.2056748-.415701-.28125-.625-.00796-.02181-.023589-.04055-.03125-.0625-.0318251-.09195-.0358045-.186831-.0625-.28125-.0303323-.106618-.0703894-.203031-.09375-.3125-.0728786-.341512-.125-.698205-.125-1.0625v-2-68-2c0-2.781848 2.2181517-5 5-5h2 68 2c2.781848 0 5 2.218152 5 5v2 68 2c0 .364295-.05212.720988-.125 1.0625-.04415.206893-.08838.397658-.15625.59375-.0077.02195-.0233.04069-.03125.0625-.06274.173739-.138383.367449-.21875.53125-.04158.0828-.07904.169954-.125.25-.0546.09721-.126774.18835-.1875.28125-.09411.140965-.204921.275995-.3125.40625-.143174.17445-.303141.346998-.46875.5-.01117.0102-.01998.02115-.03125.03125-.138386.125556-.285091.234436-.4375.34375-.102571.07315-.204318.153364-.3125.21875-.0074.0045-.02384-.0044-.03125 0-.232039.138728-.462548.274778-.71875.375.301527-.0968.596455-.204138.875-.34375.55709-.279224 1.060053-.665694 1.5-1.09375.219973-.214028.409366-.441865.59375-.6875s.355408-.507743.5-.78125c.14012-.265048.276135-.524729.375-.8125.01041-.03078.02133-.06274.03125-.09375.09046-.278085.1388-.579404.1875-.875.0524-.31805.09375-.634029.09375-.96875v-2-68-2c0-3.324-2.676-6-6-6z" fill="url(#b)" opacity=".45"/><path d="m12 90c-3.324 0-6-2.676-6-6v-2-68-2c0-.334721.04135-.6507.09375-.96875.0487-.295596.09704-.596915.1875-.875.00988-.03038.020892-.0636.03125-.09375.098865-.287771.2348802-.547452.375-.8125.1445918-.273507.3156161-.535615.5-.78125s.3737765-.473472.59375-.6875c.439947-.428056.94291-.814526 1.5-1.09375.278545-.139612.5734731-.246947.875-.34375-.2562018.100222-.4867109.236272-.71875.375-.00741.0044-.023866-.0045-.03125 0-.031933.0193-.062293.04251-.09375.0625-.120395.0767-.2310226.163513-.34375.25-.1061728.0808-.2132809.161112-.3125.25-.1779299.161433-.3474596.345388-.5.53125-.1075789.130255-.2183939.265285-.3125.40625-.025089.03838-.038446.08587-.0625.125-.064763.103032-.1302275.204517-.1875.3125-.1010083.194706-.2056748.415701-.28125.625-.00796.02181-.023589.04055-.03125.0625-.0318251.09195-.0358045.186831-.0625.28125-.0303323.106618-.0703894.203031-.09375.3125-.0728786.341512-.125.698205-.125 1.0625v2 68 2c0 2.781848 2.2181517 5 5 5h2 68 2c2.781848 0 5-2.218152 5-5v-2-68-2c0-.364295-.05212-.720988-.125-1.0625-.04415-.206893-.08838-.397658-.15625-.59375-.0077-.02195-.0233-.04069-.03125-.0625-.06274-.173739-.138383-.367449-.21875-.53125-.04158-.0828-.07904-.169954-.125-.25-.0546-.09721-.126774-.18835-.1875-.28125-.09411-.140965-.204921-.275995-.3125-.40625-.143174-.17445-.303141-.346998-.46875-.5-.01117-.0102-.01998-.02115-.03125-.03125-.138386-.125556-.285091-.234436-.4375-.34375-.102571-.07315-.204318-.153364-.3125-.21875-.0074-.0045-.02384.0044-.03125 0-.232039-.138728-.462548-.274778-.71875-.375.301527.0968.596455.204138.875.34375.55709.279224 1.060053.665694 1.5 1.09375.219973.214028.409366.441865.59375.6875s.355408.507743.5.78125c.14012.265048.276135.524729.375.8125.01041.03078.02133.06274.03125.09375.09046.278085.1388.579404.1875.875.0524.31805.09375.634029.09375.96875v2 68 2c0 3.324-2.676 6-6 6z" fill="url(#e)" opacity=".2"/><rect height="66" rx="12" style="opacity:.1;stroke:#fff;stroke-width:.5;stroke-linecap:round;clip-path:url(#f);fill:url(#d);filter:url(#c)" width="66" x="15" y="15"/><path d="m46.15625 26.59375c-1.915006.0012-3.607898.02295-4.8125.15625-5.37915.595348-10.21086 2.078051-15.375 4.65625-8.283585 4.13559-13.954295 9.090688-17.125 15.53125-1.3960401 2.83569-2.0145957 5.364233-2.03125 8.40625-.010046 1.88468.205345 3.320553.71875 4.9375 1.9642964 6.18643 7.5506 10.580722 14.03125 11.0625 6.027541.448059 11.390601-2.269404 13.59375-7.46875.270743-.638914.42879-1.297881.5625-1.9375l4.4375 2.125.03125.03125a1.1750636 1.1750636 0 0 0 .09375.03125c.04064.01959.09365.03121.09375.03125a1.1750636 1.1750636 0 0 0 .125.03125c.0552.02146.09363.06246.09375.0625.000258.000084.218486.06244.21875.0625.000264.000064.249732.03121.25.03125.000134.000022-.0078-.0078.03125 0 .01952.0039.04772.02829.0625.03125.0023.000455.02954-.00034.03125 0 .00027.000024.374729.03125.375.03125.000271.000003.187229.000017.1875 0 .01952.000003.04768 0 .0625 0 .0074 0 .0266.000002.03125 0 .000269-.000037.405985-.06244.40625-.0625.000132-.000028.02345-.02344.0625-.03125.03905-.0078.18737-.03121.1875-.03125 0 0 .185645-.06158.1875-.0625.0039-.0019-.006-.02827 0-.03125.000127-.000048.156263-.04688.1875-.0625.03124-.01562.03113-.03119.03125-.03125.01952-.0078.04771-.02533.0625-.03125.0074-.003.02666.0018.03125 0 0 0 .146772-.08451.21875-.125.0031-.0016-.0058-.02836 0-.03125.0058-.0029.02395.0036.03125 0 .02209-.01287.04036-.01835.0625-.03125.006-.003.0273.002.03125 0 0 0 .262467-.244454.34375-.3125.01189-.01.0623-.03099.0625-.03125.0015-.002-.0015-.02926 0-.03125.003-.004.02676.006.03125 0 .009-.01197.01954-.01563.03125-.03125s.0226-.05096.03125-.0625a1.1750636 1.1750636 0 0 0 -.0625.03125c.244096-.226037.551419-.475955.75-.9375.09609-.223341.127508-.409359.15625-.5625.0015-.0079-.0014-.02346 0-.03125.01431-.07917.05255.01141.03125-.34375.0065-.05405.02781-.142082.03125-.1875.01936-.255499.03599-.472295.03125-.5625-.01718-.327096-.08197-.51686-.125-.6875-.0026-.07143-.02712-.101603-.03125-.15625-.0014-.01822.0015-.04269 0-.0625-.0075-.09903.006-.203148 0-.3125-.01957-.354952-.05877-.687032-.0625-1-.0042-.356931-.01331-.770076 0-1.09375.0067-.161837.02449-.303899.03125-.40625.0068-.102351.02264-.254433 0-.125.112342-.642259.176652-.911807.1875-.9375.01085-.02569-.03075.02799.21875-.21875.321258-.317694.493685-.434217.78125-.53125.287565-.09703.772311-.155468 1.625-.15625 2.074743-.0019 3.348782.530103 5.03125 2.21875.389753.391182 1.496183 1.520132 2.21875 2.34375.416797.475074.815391.946641 1.15625 1.3125.13.139536.25354.251856.4375.4375.180972.18263.403219.393598.6875.59375.361022.254163.684467.356816.78125.40625.120956.06178.400883.253568.78125.4375.607293.293665 1.364519.648587 2.125 1 .771226.356379 1.509469.66364 2.0625.90625.231737.101661.459969.226928.75.34375.06466.02604.18924.09341.375.15625.05901.01997.106329.01654.15625.03125.06574.0278.0742.02489.09375.03125.05283.01718.09137.02301.125.03125.01614.004.04336-.0045.0625 0 .06024.008.150507.03121.1875.03125.03058.0056.05915.02636.09375.03125.06705.0095.102547.02693.1875.03125.04512.0022.09428.000083.15625 0 .148717-.000199.361301-.0142.625-.0625.403927-.07398.926179-.344676.65625-.21875.04333-.02021.069-.03218.125-.0625.014-.0076.03438-.014.0625-.03125.0062-.0038.0178-.0216.03125-.03125.03437-.02467.06815-.04319.09375-.0625.02228-.01336.01195-.01819.03125-.03125.03002-.02032.03915-.01237.0625-.03125-.118967.07137-.114552.08132.125-.0625.02145-.01288.01226-.01851.03125-.03125.09623-.05785.04708-.02428.09375-.0625a1.1750636 1.1750636 0 0 0 .0625-.0625c.01915-.02345.09537-.05715.09375-.0625 0 0 .0052-.01403.03125-.03125a1.1750636 1.1750636 0 0 0 .03125-.03125c.0041-.0028.02505.0043.03125 0s.01468-.01903.03125-.03125c.0083-.0061.04033-.01339.0625-.03125.01108-.0089.03118-.03118.03125-.03125.000022-.00002.01357-.04353.03125-.0625-.01236.0115-.06175.118629.125-.125a1.1750636 1.1750636 0 0 1 .03125-.03125 1.1750636 1.1750636 0 0 1 .03125-.03125c.0063-.01087-.0068-.0195 0-.03125 0 0 .01966-.01104.03125-.03125.0104-.01412-.009-.01851 0-.03125.0098-.01691.02395-.0186.03125-.03125v-.03125s.03125-.03125.03125-.03125c.03981-.06864.100121-.145254.125-.1875-.0071.01203.19976-.258949.3125-.59375.09391-.278875.108394-.513699.125-.6875.0023-.02433-.0016-.0408 0-.0625a1.1750636 1.1750636 0 0 0 .03125-.09375c.000684-.0189-.000223-.04454 0-.0625.000398-.03207-.01078.02617-.03125-.15625-.0019-.0171.0047-.06666 0-.09375-.0014-.01346.0015-.01836 0-.03125-.02775-.234737-.06222-.561312-.0625-.5625.03982.17066-.05244-.249247-.21875-.625-.147434-.333095-.392224-.690211-.28125-.5-.193709-.332025-.355971-.555323-.46875-.71875-.836355-1.212031-1.688841-3.20681-1.90625-4.1875.01372.06187-.05365-.644801-.03125-1.0625.0039-.07265-.0054-.119148 0-.1875.123161-.0055.236743-.001.375 0 .615519.0046 1.481383.04451 2.46875.15625 2.663571.301438 4.37989.362496 6.28125.21875 4.112145-.310869 7.232064-1.041901 10.40625-2.59375.787175-.384859 1.500236-.768715 2.1875-1.375.805851-.710898 1.236044-1.567826 1.5-2.28125.211986-.572909.373363-1.158479.46875-1.71875.04354-.255715.11146-.594352.09375-1-.000549-.01257.000688-.01856 0-.03125-.0012-.02351-.02835-.05833-.03125-.09375-.000638-.0078.000743-.02292 0-.03125a1.1750636 1.1750636 0 0 0 -.03125-.09375c-.0057-.04986.0098-.09458 0-.15625-.01284-.08058-.07109-.214933-.09375-.3125.06604-.101783.120859-.191146.1875-.34375.186639-.427388.28125-.874616.28125-1.3125 0-.285695-.05904-.512269-.09375-.6875-.01735-.08762-.01653-.16345-.03125-.21875.02438.1058-.01696-.01624-.03125-.09375-.0034-.01118.0072-.0096 0-.03125-.0042-.02494-.02578-.06471-.03125-.09375-.01772-.09404-.02755-.185016-.0625-.3125-.114053-.416044-.250449-.814915-.375-1.21875-.279315-.905633-.603903-1.875264-.875-2.59375-.616421-1.633733-1.21231-2.953769-2.09375-4.09375-.901341-1.165719-2.049656-2.022597-3.3125-2.625-2.403653-1.146603-5.000649-1.892236-9.3125-2.875-2.005129-.425748-4.150107-.906175-6.40625-1.1875 0 0-.153301-.03125-.15625-.03125-.000187-.000013-.187312.000003-.1875 0a1.1750636 1.1750636 0 0 0 -.03125 0h-.09375a1.1750636 1.1750636 0 0 0 -.03125 0c-.02343-.000003-.156157.03124-.15625.03125 0 0-.02304-.0014-.03125 0-.0086-.000002-.01953.000004-.03125 0s-.05344 0-.0625 0c0 0-.05711.0253-.09375.03125-.01346.0017-.02047-.0013-.03125 0-.02715.0044-.03211-.0049-.0625 0-.09372.01525-.186037.03076-.1875.03125-.009.003-.01954.02734-.03125.03125-.03213.0096-.07583.02528-.09375.03125-.02343.0078-.03116-.000028-.03125 0-.01562.0039-.01943-.003-.03125 0-.0059.0015-.0276-.000913-.03125 0-.0036.000913 0 .03125 0 .03125-.000089.000032-.101569.02344-.125.03125-.02343.0078-.156163.03121-.15625.03125 0 0-.278389.154345-.28125.15625-.0089.0059-.01954.02344-.03125.03125-.01995.01241-.03803.01582-.0625.03125-.01557.0098-.02469.02688-.03125.03125-.01388.008-.03128.00002-.03125 0-.05603.03585-.24987.15615-.25.15625-.0045.003-.02841.02936-.03125.03125 0 0-.157282.125629-.25.21875l-.0625.0625a1.1750636 1.1750636 0 0 0 0 .03125c-.000065.000068-.0078.0078-.03125.03125-.006.009.0078.01953 0 .03125-.01843.01899-.07182.0081-.09375.03125.0063-.0062.0069.02335 0 .03125-.0085.009-.03124.03123-.03125.03125-.01918.02485-.07362.120928-.125.1875-.0059.0077.0046.02531 0 .03125-.01069.01385-.06248.03122-.0625.03125 0 0-.0533.0746-.09375.15625-.01608.02056-.02756.05697-.03125.0625-.0078.01171-.0253.02232-.03125.03125-.002.0041.000094.03097 0 .03125-.0018.0037.0033.02451 0 .03125-.0098-.0027-.02141.0027-.03125 0-3.498331-.962518-6.923036-1.74914-10.5625-2.125-1.54698-.159779-4.139763-.220263-6.625-.21875z" opacity=".05"/><path d="m46.15625 27.78125c-1.913393.0012-3.614164.0062-4.6875.125-5.2417.580135-9.901352 2.032599-14.96875 4.5625-8.140902 4.064356-13.561825 8.841337-16.59375 15-1.3386089 2.719034-1.8903944 4.978868-1.90625 7.875-.0096 1.801859.1741317 3.075339.65625 4.59375 1.818228 5.726397 6.997191 9.803745 13 10.25 5.636453.418987 10.407346-2.063915 12.40625-6.78125.5514-1.301226.74969-2.594149.75-3.9375.01051.0318.03121.06238.03125.0625.000071.000196.03117.124809.03125.125.000082.000191.03116.09356.03125.09375.000093.000186.0624.09357.0625.09375.000104.000181.06239.09358.0625.09375.000114.000174.06238.09358.0625.09375.000124.000167.09362.09359.09375.09375.000133.00016.06236.0936.0625.09375.000142.000152.0936.09361.09375.09375.000151.000144.06234.06236.0625.0625.000159.000135.09358.06238.09375.0625.000166.000125.09358.09363.09375.09375.000173.000116.09357.0624.09375.0625.00018.000105.124815.03115.125.03125a.99295346.99295346 0 0 0 0 .03125l4.875 2.375v-.03125c.000243.000121.124749.0624.125.0625.000251.000103.155992.06242.15625.0625.000258.000084.124736.03119.125.03125.000264.000064.155982.03121.15625.03125.000268.000044.15598.03123.15625.03125.00027.000024.155979-.000003.15625 0s.124729.000017.125 0 .155981.000037.15625 0 .155985-.03119.15625-.03125c.000265-.000057.15599-.03117.15625-.03125.00026-.000077.124746-.0624.125-.0625.000254-.000097.124754-.06238.125-.0625.000246-.000115.156014-.06237.15625-.0625.000236-.000133.124774-.0936.125-.09375.000226-.000151.124786-.06233.125-.0625.000214-.000167.09355-.124817.09375-.125.227025-.207661.42856-.417576.53125-.65625s.123791-.498901.09375-.375c.04287-.176796.05977-.338918.0625-.375.01285-.169601.0049-.312499 0-.40625-.01505-.286639-.07868-.491615-.125-.6875.01714.07246-.01463-.229746-.03125-.53125s-.05789-.675105-.0625-1.0625c-.0092-.77479.04022-1.685107.0625-1.8125.226805-1.296638.251862-1.319879.75-1.8125.771628-.763066 1.398906-1.02958 3.21875-1.03125 2.319916-.0021 4.041761.722528 5.875 2.5625.419605.421144 1.497209 1.548181 2.25 2.40625.40874.46589.82515.925865 1.15625 1.28125.148659.159563.254716.284579.40625.4375.119232.120324.296353.272118.53125.4375.257565.181328.448889.253798.625.34375.205908.105172.439541.256123.75.40625.596434.288414 1.368583.650465 2.125 1 .756216.349443 1.47547.662434 2.03125.90625.247217.108452.463264.209592.71875.3125.100738.04058.20878.08991.3125.125.223142.0755.242818.06087.25.0625-.07546-.01708.144548.05238.34375.0625-.134137-.0068.202051.02332.5-.03125.317533-.05816.306115-.09286.375-.125.06888-.03214.06228-.03115.0625-.03125 0 0 .09106-.06089.09375-.0625.0027-.0016.02687.0026.03125 0 .0088-.0053.01654-.02243.03125-.03125.02941-.01763.05467-.03905.09375-.0625s.09557-.04483.125-.0625c.01472-.0088.0224-.02593.03125-.03125l-.5-.84375.6875.6875s.09187-.06009.09375-.0625c.0019-.0024-.001-.02994 0-.03125.0045-.0059.02438-.02218.03125-.03125.01375-.01814.042-.03468.0625-.0625.04099-.05564.05486-.09964.125-.21875.04645-.07887.123871-.186042.1875-.375.106946-.317596.09641-.626024.09375-.5625.01104-.263626-.06207-.529402-.0625-.53125-.02057-.08816-.0098-.177265-.125-.4375-.087019-.1966-.185755-.318446-.21875-.375-.156325-.267947-.304121-.462972-.4375-.65625-.945675-1.370456-1.819679-3.357467-2.09375-4.59375-.05289-.238571-.09055-.852057-.0625-1.375.01402-.261471.03743-.505463.0625-.6875.025071-.182037.106645-.360973.03125-.1875.01004-.02309.114498-.154779.21875-.25.104252-.09522.233853-.179336.15625-.15625-.130373.03879.04583.01233.25 0 .204172-.01233.501092-.03381.84375-.03125.685316.0051 1.58089.07287 2.59375.1875 2.627605.297368 4.238223.356668 6.0625.21875 4.017509-.303715 6.927776-1.013278 9.96875-2.5.771924-.377403 1.379334-.695102 1.9375-1.1875.610462-.538532.965691-1.212992 1.1875-1.8125.187281-.506142.324028-1.017055.40625-1.5.04069-.238979.07763-.502104.0625-.78125.000466.0086-.01041-.423397-.1875-.8125-.03121-.06858-.06108-.07035-.09375-.125.06866-.07193.137745-.168045.21875-.28125-.05699.07964.111594-.09837.21875-.34375.107156-.245379.15625-.527441.15625-.84375 0-.363944-.09639-.667692-.09375-.65625-.01246-.05406-.02846-.230601-.09375-.46875-.09484-.345957-.240487-.751365-.375-1.1875-.275337-.892736-.590632-1.860413-.84375-2.53125-.59899-1.587534-1.163158-2.779781-1.9375-3.78125-.782249-1.011695-1.751173-1.745161-2.875-2.28125-2.28417-1.089606-4.775495-1.804149-9.0625-2.78125-2.018931-.428679-4.134892-.915968-6.3125-1.1875-.000186-.000023-.09356.000013-.09375 0-.000187-.000013-.124812.000003-.125 0s-.09356-.000006-.09375 0c-.000188.000006-.09356-.000016-.09375 0-.000187.000016-.124814.03122-.125.03125-.000186.000026-.09357-.000036-.09375 0-.000184.000036-.09357.0312-.09375.03125-.000182.000045-.09357.0312-.09375.03125-.00018.000055-.124823.03119-.125.03125-.000177.000064-.09358.03118-.09375.03125-.000173.000073-.09358.03117-.09375.03125-.000169.000082-.09359.06241-.09375.0625-.000165.000091-.09359.0624-.09375.0625-.00016.000099-.06235.03114-.0625.03125-.000154.000107-.0936.06238-.09375.0625-.000149.000115-.09361.06238-.09375.0625-.000142.000123-.06236.09362-.0625.09375-.000136.00013-.06237.06236-.0625.0625-.000129.000137-.09363.09361-.09375.09375-.000122.000143-.06239.06235-.0625.0625-.000114.000149-.06239.0936-.0625.09375-.000106.000155-.03115.09359-.03125.09375-.000098.00016-.06241.06234-.0625.0625-.000089.000165-.06242.09358-.0625.09375-.000081.00017-.03118.09358-.03125.09375-.000072.000174-.03119.124823-.03125.125-.000063.000177-.0312.09357-.03125.09375-.000053.00018-.03121.09357-.03125.09375-.000044.000183-.03122.09357-.03125.09375-.000034.000185.000025.124814 0 .125s-.03123.09356-.03125.09375c-.000015.000187.000005.09356 0 .09375-3.859693-1.102778-7.563301-1.968444-11.5-2.375-1.424046-.147082-4.028553-.189005-6.5-.1875z" opacity=".1"/><path d="m46.15625 28.78125c-1.9075.0012-3.638422.01929-4.59375.125-5.129962.567768-9.640404 1.948938-14.625 4.4375-8.020087 4.004039-13.208545 8.638388-16.125 14.5625-1.2941947 2.628818-1.7972859 4.658544-1.8125 7.4375-.0093 1.744011.1372703 2.843587.59375 4.28125 1.694726 5.337435 6.526697 9.146316 12.125 9.5625 5.321549.395579 9.60794-1.838561 11.4375-6.15625.660678-1.559108.837875-3.036019.65625-4.71875-.451865-4.186944-3.259488-7.503632-7.28125-8.5625-1.354978-.356758-3.053049-.370435-4.40625 0-3.425455.937785-6.055152 4.225208-5.125 8.09375.833023 3.464606 4.757367 5.552954 8.15625 4.1875.627758-.252186 1.23864-.56688 1.6875-1.15625s.559828-1.422688.34375-2.21875c-.215235-.792859-.729395-1.550758-1.5-1.84375s-1.587915-.184431-2.46875.0625c-.374585.105018-.21955.125872-.53125-.15625-.196541-.177888-.251912-.309804-.25-.46875.0019-.158946.0514-.372273.28125-.59375.543134-.523319 1.863493-.672133 3.1875 0 .542638.275478 1.121293.875938 1.5 1.625s.558606 1.627418.46875 2.28125c-.227562 1.655762-.994753 2.590732-2.59375 3.125-.592575.197982-.594256.191164-2.0625.1875-1.593098-.004-1.438625.04364-2.3125-.25-2.973547-.999192-4.919329-3.689842-4.9375-6.8125-.01157-1.990757.654583-3.456616 2.28125-5.0625 1.466293-1.447554 3.282478-2.157174 5.8125-2.15625 3.155492.0011 5.627745 1.063436 7.9375 3.375 1.707943 1.709297 3.066615 4.069999 3.5625 6.28125v.03125l.15625.75a1.0036869 1.0036869 0 0 0 .53125.71875l4.875 2.375a1.0036869 1.0036869 0 0 0 1.125-.15625c.306847-.280674.288964-.434179.3125-.53125.02354-.09707.02714-.164451.03125-.21875.0082-.108598.0046-.193802 0-.28125-.009184-.174896-.047211-.334456-.09375-.53125-.109703-.463814-.154564-3.076208-.03125-3.78125.237095-1.355465.439026-1.789336 1.03125-2.375.930646-.920319 1.954341-1.310709 3.90625-1.3125 2.553142-.0023 4.621484.895491 6.59375 2.875.441711.443331 1.50341 1.550879 2.28125 2.4375.403581.460009.804131.905596 1.125 1.25.160434.172202.288494.318666.40625.4375s.161359.162083.375.3125c.202208.142356.293923.175992.5.28125s.450374.230112.75.375c.599252.289777 1.350405.656505 2.09375 1s1.47343.661539 2.03125.90625c.27891.122355.506728.239686.6875.3125.09039.03641.169705.06659.25.09375.04015.01358.07983.01395.15625.03125.03821.0087.08345.02596.1875.03125.05203.0026.132925.02144.25 0 .05854-.01072.218305-.09356.21875-.09375.000445-.000194.312225-.187224.3125-.1875.000535-.000536.116516-.151281.15625-.21875.03973-.06747.07391-.128593.09375-.1875.03967-.117813.02817-.207724.03125-.28125.0062-.147051-.01679-.219258-.03125-.28125-.02893-.123984-.03831-.195341-.0625-.25-.048386-.109318-.102752-.189553-.15625-.28125-.106995-.183393-.254284-.373538-.40625-.59375-1.028701-1.490776-1.932358-3.504677-2.25-4.9375-.190367-.85876-.03804-2.571763.09375-2.875.181671-.418018.669054-.839049 1-.9375.313521-.09328 1.993574-.143935 4.09375.09375 2.599152.294148 4.114954.351812 5.875.21875 3.939462-.297815 6.660082-.971989 9.59375-2.40625.760729-.37193 1.278364-.642754 1.71875-1.03125s.72035-.903798.90625-1.40625c.172941-.467386.308973-.924681.375-1.3125.03301-.193909.0435-.336464.03125-.5625-.0061-.113018.0075-.246267-.09375-.46875-.08526-.187337-.45061-.436663-.8125-.53125.223719-.157129.425371-.30065.59375-.4375.09419-.07655.192704-.12916.28125-.21875.04427-.0448.09426-.10087.15625-.1875.061989-.08663.1875-.178403.1875-.625 0-.285165-.03394-.31355-.0625-.4375s-.049319-.275426-.09375-.4375c-.088861-.324148-.209955-.722442-.34375-1.15625-.267589-.867616-.59947-1.821336-.84375-2.46875-.585552-1.551918-1.1037-2.654964-1.78125-3.53125s-1.506285-1.47982-2.53125-1.96875c-2.186757-1.043138-4.579525-1.746841-8.84375-2.71875-2.025421-.430057-4.103302-.892469-6.21875-1.15625a1.0036869 1.0036869 0 0 0 -1.125.96875l-.03125 1.25c-4.299627-1.282917-8.273476-2.213308-12.5625-2.65625-1.315641-.135885-3.949545-.188996-6.40625-.1875z" opacity=".15"/><path d="m46.170834 29.781644c-1.896525.0012-3.654064.04475-4.481731.136337-5.018005.555377-9.423765 1.890706-14.325075 4.337688-7.89962 3.943895-12.85966 8.407717-15.66074 14.097471-1.25421 2.5476-1.6882 4.332578-1.70281 7.001183-.009 1.688424.11466 2.583853.55071 3.957173 1.5707 4.946824 6.04839 8.476806 11.23598 8.862457 5.01986.373153 8.75001-1.613593 10.41622-5.545782.60409-1.425568.78557-2.663503.61719-4.223521-.41171-3.814869-2.87983-6.71648-6.52635-7.676553-1.11658-.293989-2.83509-.303205-3.93101-.0032-3.00478.822617-5.19059 3.531292-4.38679 6.874331.68196 2.836322 3.99605 4.613778 6.79857 3.487904 1.11912-.449579 1.7706-.993608 1.44644-2.187857-.3304-1.217093-1.14732-1.504171-2.71248-1.065398-.61607.172721-1.05192.06209-1.51288-.355129-.77335-.699953-.76096-1.769796.0316-2.533493.9648-.929601 2.72866-1.007891 4.33929-.190253 1.59398.809208 2.75839 3.099526 2.50674 4.930637-.27015 1.96564-1.3979 3.32231-3.2885 3.95401-.6312.210887-.89236.23519-2.38015.231477-1.59585-.004-1.71361-.01865-2.61118-.320257-3.36703-1.131413-5.59104-4.198084-5.61165-7.739973-.013-2.236724.78108-4.042467 2.54473-5.783584 1.65787-1.636683 3.7994-2.436167 6.52634-2.435171 3.38987.0012 6.2045 1.18622 8.66912 3.65277 1.8548 1.85627 3.25521 4.372185 3.79492 6.810921l.17091.77368 4.867874 2.387632c.03904-.03571.02746-.363429-.02532-.586615-.199488-.843416-.230726-3.19208-.05698-4.185461.252696-1.444655.594286-2.196532 1.322995-2.91717 1.123499-1.111032 2.510298-1.589824 4.61466-1.591755 2.799089-.0025 5.17451 1.02304 7.298641 3.154972.476632.478381 1.515527 1.61148 2.310505 2.517636.794986.906138 1.566596 1.734268 1.71546 1.839078.417668.294042 6.091979 2.892561 6.162397 2.822029.03422-.03429-.166947-.395995-.44946-.805382-1.105752-1.602438-2.043302-3.666485-2.40228-5.285765-.245574-1.107801-.178229-2.742807.145603-3.487896.303178-.697602.949567-1.286933 1.633159-1.49029.73224-.217849 2.330556-.204694 4.475432.03805 2.572435.291124 3.994528.347005 5.690778.218766 3.862968-.292032 6.391783-.927331 9.222994-2.311501 1.47964-.723415 1.794228-1.00265 2.114256-1.867626.305158-.824714.44992-1.613952.29435-1.613952-.05504 0-.574632.223457-1.15524.497827-2.178652 1.029529-4.049113 1.48704-5.709781 1.398329-1.726358-.09222-4.553941-1.040431-7.9095-2.653981l-1.528739-.735637-1.247015-2.986889 1.164734.72609c1.915996 1.272284 5.014514 2.795543 6.903008 3.392789 2.88509.912411 5.181184.793406 7.504359-.390011.818847-.41711 2.354836-1.471369 2.354836-1.617123 0-.274735-.821414-2.944992-1.278702-4.156939-1.143532-3.030759-1.923027-4.041175-3.807569-4.940141-2.092232-.998047-4.397995-1.713084-8.637464-2.679351-2.026891-.430369-4.064145-.846937-6.121236-1.103441l-.05065 2.511294c-4.792613-1.490457-8.985918-2.475732-13.628751-2.955213-1.199751-.123915-3.866399-.191739-6.304803-.190254zm31.755102 5.14307c1.54826-.0039 3.025687.792104 3.889869 2.23226 1.473534 2.455701.265606 5.64599-2.490912 6.576283-1.819156.613949-3.985545-.119766-5.086264-1.721759-.90343-1.314836-1.054913-3.012353-.398797-4.435974.372808-.808928 1.260094-1.765908 1.981337-2.133957.68052-.347311 1.401001-.515062 2.104767-.516853zm-.05065 1.31273c-.725551.01535-1.46484.284904-2.088927.849776-.952872.862399-1.258883 2.42199-.708986 3.611564.451466.97668 1.306541 1.650626 2.304178 1.813703 1.414713.231276 2.754888-.428668 3.3423-1.648817.401811-.834682.473387-1.407468.272197-2.194208-.399359-1.561661-1.735647-2.461369-3.120762-2.432018zm.740629 1.613943c.537853 0 1.185018.336218 1.266031.659524.110061.439349-.03887.742834-.465263.960762-.658419.336523-1.504729.241305-2.000333-.225118-.611002-.575058.09423-1.395168 1.199565-1.395168z" opacity=".3"/><path d="m46.170834 28.781644c-1.896525.0012-3.654064.04475-4.481731.136337-5.018005.555377-9.423765 1.890706-14.325075 4.337688-7.89962 3.943895-12.85966 8.407717-15.66074 14.097471-1.25421 2.5476-1.6882 4.332578-1.70281 7.001183-.009 1.688424.11466 2.583853.55071 3.957173 1.5707 4.946824 6.04839 8.476806 11.23598 8.862457 5.01986.373153 8.75001-1.613593 10.41622-5.545782.60409-1.425568.78557-2.663503.61719-4.223521-.41171-3.814869-2.87983-6.71648-6.52635-7.676553-1.11658-.293989-2.83509-.303205-3.93101-.0032-3.00478.822617-5.19059 3.531292-4.38679 6.874331.68196 2.836322 3.99605 4.613778 6.79857 3.487904 1.11912-.449579 1.7706-.993608 1.44644-2.187857-.3304-1.217093-1.14732-1.504171-2.71248-1.065398-.61607.172721-1.05192.06209-1.51288-.355129-.77335-.699953-.76096-1.769796.0316-2.533493.9648-.929601 2.72866-1.007891 4.33929-.190253 1.59398.809208 2.75839 3.099526 2.50674 4.930637-.27015 1.96564-1.3979 3.32231-3.2885 3.95401-.6312.210887-.89236.23519-2.38015.231477-1.59585-.004-1.71361-.01865-2.61118-.320257-3.36703-1.131413-5.59104-4.198084-5.61165-7.739973-.013-2.236724.78108-4.042467 2.54473-5.783584 1.65787-1.636683 3.7994-2.436167 6.52634-2.435171 3.38987.0012 6.2045 1.18622 8.66912 3.65277 1.8548 1.85627 3.25521 4.372185 3.79492 6.810921l.17091.77368 4.867874 2.387632c.03904-.03571.02746-.363429-.02532-.586615-.199488-.843416-.230726-3.19208-.05698-4.185461.252696-1.444655.594286-2.196532 1.322995-2.91717 1.123499-1.111032 2.510298-1.589824 4.61466-1.591755 2.799089-.0025 5.17451 1.02304 7.298641 3.154972.476632.478381 1.515527 1.61148 2.310505 2.517636.794986.906138 1.566596 1.734268 1.71546 1.839078.417668.294042 6.091979 2.892561 6.162397 2.822029.03422-.03429-.166947-.395995-.44946-.805382-1.105752-1.602438-2.043302-3.666485-2.40228-5.285765-.245574-1.107801-.178229-2.742807.145603-3.487896.303178-.697602.949567-1.286933 1.633159-1.49029.73224-.217849 2.330556-.204694 4.475432.03805 2.572435.291124 3.994528.347005 5.690778.218766 3.862968-.292032 6.391783-.927331 9.222994-2.311501 1.47964-.723415 1.794228-1.00265 2.114256-1.867626.305158-.824714.44992-1.613952.29435-1.613952-.05504 0-.574632.223457-1.15524.497827-2.178652 1.029529-4.049113 1.48704-5.709781 1.398329-1.726358-.09222-4.553941-1.040431-7.9095-2.653981l-1.528739-.735637-1.247015-2.986889 1.164734.72609c1.915996 1.272284 5.014514 2.795543 6.903008 3.392789 2.88509.912411 5.181184.793406 7.504359-.390011.818847-.41711 2.354836-1.471369 2.354836-1.617123 0-.274735-.821414-2.944992-1.278702-4.156939-1.143532-3.030759-1.923027-4.041175-3.807569-4.940141-2.092232-.998047-4.397995-1.713084-8.637464-2.679351-2.026891-.430369-4.064145-.846937-6.121236-1.103441l-.05065 2.511294c-4.792613-1.490457-8.985918-2.475732-13.628751-2.955213-1.199751-.123915-3.866399-.191739-6.304803-.190254zm31.755102 5.14307c1.54826-.0039 3.025687.792104 3.889869 2.23226 1.473534 2.455701.265606 5.64599-2.490912 6.576283-1.819156.613949-3.985545-.119766-5.086264-1.721759-.90343-1.314836-1.054913-3.012353-.398797-4.435974.372808-.808928 1.260094-1.765908 1.981337-2.133957.68052-.347311 1.401001-.515062 2.104767-.516853zm-.05065 1.31273c-.725551.01535-1.46484.284904-2.088927.849776-.952872.862399-1.258883 2.42199-.708986 3.611564.451466.97668 1.306541 1.650626 2.304178 1.813703 1.414713.231276 2.754888-.428668 3.3423-1.648817.401811-.834682.473387-1.407468.272197-2.194208-.399359-1.561661-1.735647-2.461369-3.120762-2.432018zm.740629 1.613943c.537853 0 1.185018.336218 1.266031.659524.110061.439349-.03887.742834-.465263.960762-.658419.336523-1.504729.241305-2.000333-.225118-.611002-.575058.09423-1.395168 1.199565-1.395168z" fill="url(#k)"/><path d="m46.15625 28.78125c-1.896525.0012-3.641083.03341-4.46875.125-5.018005.555377-9.41119 1.896768-14.3125 4.34375-7.89962 3.943895-12.85517 8.403996-15.65625 14.09375-1.25421 2.5476-1.70414 4.331395-1.71875 7-.00128.239707.02667.444873.03125.65625.05211-2.468707.491868-4.227635 1.6875-6.65625 2.80108-5.689754 7.75663-10.149855 15.65625-14.09375 4.90131-2.446982 9.294495-3.788373 14.3125-4.34375.827667-.09159 2.572225-.1238 4.46875-.125 2.438404-.0015 5.112749.06358 6.3125.1875 4.642833.479481 8.832387 1.478293 13.625 2.96875l.0625-2.53125c2.057091.256504 4.098109.694631 6.125 1.125 4.239469.966267 6.532768 1.658203 8.625 2.65625 1.884542.898966 2.668968 1.906741 3.8125 4.9375.323764.85807.825689 2.422655 1.09375 3.375.096721-.08361.1875-.190856.1875-.21875 0-.274735-.823962-2.944303-1.28125-4.15625-1.143532-3.030759-1.927958-4.038534-3.8125-4.9375-2.092232-.998047-4.385531-1.689983-8.625-2.65625-2.026891-.430369-4.067909-.868496-6.125-1.125l-.0625 2.53125c-4.792613-1.490457-8.982167-2.489269-13.625-2.96875-1.199751-.123915-3.874096-.188985-6.3125-.1875zm31.71875 6.46875c-.725551.01535-1.469663.278878-2.09375.84375-.766343.69358-1.116695 1.834674-.9375 2.875.0978-.718875.413212-1.400492.9375-1.875.624087-.564872 1.368199-.8284 2.09375-.84375 1.385115-.02935 2.725641.844589 3.125 2.40625.02537.09923.04592.187874.0625.28125.081441-.41053.055575-.819524-.0625-1.28125-.399359-1.561661-1.739885-2.435601-3.125-2.40625zm-.4375 3.03125c-.290908.285413-.360113.659233-.03125.96875.495604.466423 1.341581.555273 2 .21875.426393-.217928.578811-.529401.46875-.96875-.02161-.08625-.09812-.13729-.1875-.21875-.0722.06596-.174652.133018-.28125.1875-.644751.329537-1.469403.254124-1.96875-.1875zm-3.96875.625c-.125164 1.071939.147747 2.171761.78125 3.09375 1.100719 1.601993 3.243344 2.332699 5.0625 1.71875 2.132326-.719635 3.339146-2.774304 3.09375-4.8125-.18349 1.679154-1.313753 3.211772-3.09375 3.8125-1.819156.613949-3.961781-.116757-5.0625-1.71875-.43932-.639379-.703953-1.348887-.78125-2.09375zm-5.40625 2.28125 1.25 2.96875 1.53125.75c3.355559 1.61355 6.179892 2.56403 7.90625 2.65625 1.660668.08871 3.540098-.376721 5.71875-1.40625.516294-.243978.895193-.395362 1.03125-.4375.16216-.569899.241678-1.0625.125-1.0625-.05504 0-.575642.22563-1.15625.5-2.178652 1.029529-4.058082 1.494961-5.71875 1.40625-1.726358-.09222-4.550691-1.0427-7.90625-2.65625l-1.53125-.75-.6875-1.625zm-43.75 8.3125c-.70619-.0016-1.38954.06875-1.9375.21875-2.708418.741482-4.743238 3.016704-4.53125 5.90625.262754-2.409326 2.142315-4.252232 4.53125-4.90625 1.09592-.300005 2.78967-.293989 3.90625 0 3.64652.960073 6.11954 3.872631 6.53125 7.6875.02221.205802.02138.397988.03125.59375.03481-.506663.02999-1.026406-.03125-1.59375-.41171-3.814869-2.88473-6.727427-6.53125-7.6875-.55829-.146995-1.26256-.217198-1.96875-.21875zm37.59375 4.8125c-.02662.640363.0022 1.3211.125 1.875.323718 1.460231 1.129974 3.262319 2.09375 4.78125.402916.172022.76658.327194.78125.3125.03422-.03429-.186237-.403113-.46875-.8125-1.105752-1.602438-2.047272-3.66197-2.40625-5.28125-.05932-.267579-.101401-.565875-.125-.875zm-46.90625.9375c-.01108.187464-.03238.36881-.03125.5625.02061 3.541889 2.25797 6.618587 5.625 7.75.89757.301607 1.02915.3085 2.625.3125 1.48779.0037 1.7438-.03911 2.375-.25 1.8906-.6317 3.0111-1.97186 3.28125-3.9375.04374-.318232.03663-.664213 0-1-.27015 1.96564-1.39065 3.3058-3.28125 3.9375-.6312.210887-.88721.253713-2.375.25-1.59585-.004-1.72743-.01089-2.625-.3125-3.226578-1.084217-5.399611-3.958784-5.59375-7.3125zm6.53125.5c-.202398.607378-.05905 1.241045.46875 1.71875.46096.417219.88393.547721 1.5.375 1.56516-.438773 2.38835-.154593 2.71875 1.0625.09305-.276122.109292-.597352 0-1-.3304-1.217093-1.15359-1.501273-2.71875-1.0625-.61607.172721-1.03904.04222-1.5-.375-.236467-.214024-.379049-.454887-.46875-.71875zm19.84375 1.84375c-.03405.900727.0019 1.905738.09375 2.59375l.09375.03125c.03904-.03571.02153-.370564-.03125-.59375-.099744-.421708-.145223-1.214484-.15625-2.03125z" fill="#fff"/><path d="m77.9375 32.9375c-.703766.0018-1.44448.152689-2.125.5-.721243.368049-1.595942 1.316072-1.96875 2.125-.328058.71181-.443785 1.514564-.375 2.28125.05707-.435123.187967-.875431.375-1.28125.372808-.808928 1.247507-1.756951 1.96875-2.125.68052-.347311 1.421234-.498209 2.125-.5 1.54826-.0039 3.010818.778594 3.875 2.21875.33367.556075.521916 1.153362.59375 1.75.100664-.921197-.07174-1.880046-.59375-2.75-.864182-1.440156-2.32674-2.22265-3.875-2.21875zm.6875 2.90625c-1.105335 0-1.829752.831192-1.21875 1.40625.01029.0097.02066.02189.03125.03125.249577-.244862.677095-.4375 1.1875-.4375.394365 0 .81686.213613 1.0625.4375.216612-.197888.270046-.451738.1875-.78125-.08101-.323306-.712147-.65625-1.25-.65625zm2.4375 2.09375c-.05733.288976-.177756.592681-.34375.9375-.587412 1.220149-1.929037 1.856276-3.34375 1.625-.997637-.163077-1.861034-.83582-2.3125-1.8125-.107645-.232865-.175134-.465533-.21875-.71875-.07995.587652-.02858 1.183701.21875 1.71875.451466.97668 1.314863 1.649423 2.3125 1.8125 1.414713.231276 2.756338-.404851 3.34375-1.625.351132-.729407.458638-1.290537.34375-1.9375zm-13 1.25.5625 1.34375.625.375c1.915996 1.272284 5.017756 2.809004 6.90625 3.40625 2.88509.912411 5.176825.777167 7.5-.40625.818847-.41711 2.34375-1.479246 2.34375-1.625 0-.08022-.076949-.388494-.1875-.78125-.408669.353271-1.494113 1.068966-2.15625 1.40625-2.323175 1.183417-4.61491 1.318661-7.5.40625-1.888494-.597246-4.990254-2.133966-6.90625-3.40625zm17.5625 5.46875c-.0061 0-.108052.05725-.125.0625-.05405.189966-.07996.356321-.15625.5625-.320028.864976-.64536 1.151585-2.125 1.875-2.831211 1.38417-5.355782 2.020468-9.21875 2.3125-1.69625.128239-3.115065.07237-5.6875-.21875-2.144876-.242744-3.76776-.280349-4.5-.0625-.683592.203357-1.321822.802398-1.625 1.5-.242874.558817-.350731 1.631625-.28125 2.59375.02855-.627868.122096-1.227561.28125-1.59375.303178-.697602.941408-1.296643 1.625-1.5.73224-.217849 2.355124-.180244 4.5.0625 2.572435.291124 3.99125.346989 5.6875.21875 3.862968-.292032 6.387539-.92833 9.21875-2.3125 1.47964-.723415 1.804972-1.010024 2.125-1.875.305158-.824714.43682-1.625.28125-1.625zm-61.5625.9375c-2.72694-.000996-4.87338.800817-6.53125 2.4375-1.76365 1.741117-2.5755 3.544526-2.5625 5.78125.00086.147746.0228.291514.03125.4375.116913-1.977365.920324-3.628406 2.53125-5.21875 1.65787-1.636683 3.80431-2.438496 6.53125-2.4375 3.38987.0012 6.19163 1.1897 8.65625 3.65625 1.8548 1.85627 3.27279 4.373764 3.8125 6.8125l.15625.78125 4.875 2.375c.03904-.03571.02153-.370564-.03125-.59375-.02494-.105427-.04289-.290621-.0625-.4375l-4.78125-2.34375-.15625-.78125c-.53971-2.438736-1.9577-4.95623-3.8125-6.8125-2.46462-2.46655-5.26638-3.65505-8.65625-3.65625zm23.34375 4.34375c-2.104362.0019-3.501501.482718-4.625 1.59375-.728709.720638-1.059804 1.461595-1.3125 2.90625-.08002.457478-.0971 1.215792-.09375 1.96875.01839-.37306.05031-.720405.09375-.96875.252696-1.444655.583791-2.185612 1.3125-2.90625 1.123499-1.111032 2.520638-1.591819 4.625-1.59375 2.799089-.0025 5.188369 1.024318 7.3125 3.15625.476632.478381 1.517522 1.593844 2.3125 2.5.794986.906138 1.569886 1.73894 1.71875 1.84375.417668.294042 6.085832 2.914282 6.15625 2.84375.03422-.03429-.186237-.403113-.46875-.8125-.108609-.157395-.207525-.334557-.3125-.5-1.53108-.653685-5.044346-2.298467-5.375-2.53125-.148864-.10481-.923764-.937612-1.71875-1.84375-.794978-.906156-1.835868-2.021619-2.3125-2.5-2.124131-2.131932-4.513411-3.15875-7.3125-3.15625zm-23.4375 2.25c-.762894.03357-1.4551.2852-1.9375.75-.55022.530182-.70366 1.213414-.5 1.8125.09416-.282577.248348-.570012.5-.8125.9648-.929601 2.73312-1.005138 4.34375-.1875 1.316959.668574 2.325874 2.341167 2.5 3.9375.25165-1.831111-.90602-4.128292-2.5-4.9375-.805315-.408819-1.643356-.596068-2.40625-.5625zm-13.9375 1.8125c-.0026.12095-.03057.219113-.03125.34375-.009 1.688424.12645 2.59543.5625 3.96875 1.5707 4.946824 6.03116 8.489349 11.21875 8.875 5.01986.373153 8.77129-1.630311 10.4375-5.5625.524397-1.237503.689936-2.336853.625-3.625-.0609.886502-.240604 1.71788-.625 2.625-1.66621 3.932189-5.41764 5.935653-10.4375 5.5625-5.18759-.385651-9.64805-3.928176-11.21875-8.875-.374144-1.178349-.503544-2.035001-.53125-3.3125zm7.8125.625c-.06774.621101-.03974 1.283578.125 1.96875.68196 2.836322 4.00998 4.625874 6.8125 3.5 1.11912-.449579 1.76166-.993251 1.4375-2.1875-.182931.542852-.695698.889499-1.4375 1.1875-2.80252 1.125874-6.13054-.663678-6.8125-3.5-.07928-.329724-.101804-.652569-.125-.96875z" opacity=".15"/></svg>